<?xml version="1.0" standalone="no"?>
<!DOCTYPE svg PUBLIC "-//W3C//DTD SVG 20010904//EN"
 "http://www.w3.org/TR/2001/REC-SVG-20010904/DTD/svg10.dtd">
<svg version="1.0" xmlns="http://www.w3.org/2000/svg"
 width="271.000000pt" height="271.000000pt" viewBox="0 0 271.000000 271.000000"
 preserveAspectRatio="xMidYMid meet">
<metadata>
Created by potrace 1.14, written by Peter Selinger 2001-2017
</metadata>
<g transform="translate(0.000000,271.000000) scale(0.100000,-0.100000)"
fill="#000000" stroke="none">
<path d="M2520 2703 c-8 -2 -24 -9 -35 -13 -11 -5 -112 -44 -225 -86 -113 -41
-214 -80 -225 -85 -27 -12 -466 -179 -485 -184 -8 -3 -116 -43 -240 -90 -124
-48 -241 -92 -260 -99 -60 -22 -769 -292 -883 -336 -86 -33 -112 -48 -134 -76
-42 -56 -36 -142 13 -192 8 -7 40 -24 72 -37 31 -12 230 -97 442 -189 211 -91
395 -166 409 -166 24 0 61 24 116 76 26 25 116 109 315 294 20 19 71 66 111
104 41 38 125 116 188 175 62 58 128 120 145 136 49 46 274 255 315 294 214
201 230 212 258 189 23 -19 14 -42 -38 -98 -28 -30 -101 -109 -162 -175 -62
-65 -135 -144 -163 -175 -91 -98 -117 -126 -229 -246 -128 -137 -107 -115
-260 -279 -66 -72 -124 -135 -130 -141 -5 -6 -66 -70 -135 -143 -129 -137
-151 -169 -143 -210 3 -20 108 -270 332 -795 51 -121 74 -145 143 -153 49 -6
89 10 124 49 12 12 94 216 183 453 89 237 167 441 172 455 9 21 123 321 335
885 25 66 50 129 54 140 5 11 44 112 86 225 42 113 82 219 89 235 48 107 42
184 -18 229 -31 24 -105 39 -137 29z"/>
</g>
</svg>
