<?xml version="1.0" encoding="UTF-8"?><svg id="a" xmlns="http://www.w3.org/2000/svg" width="531.49" height="198.76" viewBox="0 0 531.49 198.76"><g><path d="M290.5,173.88c-.73,0-1.33-.59-1.33-1.33s.59-1.33,1.33-1.33,1.33,.59,1.33,1.33-.59,1.33-1.33,1.33Z" fill="#c1e2f3" fill-rule="evenodd"/><path d="M290.5,173.88c-.73,0-1.33-.59-1.33-1.33s.59-1.33,1.33-1.33,1.33,.59,1.33,1.33-.59,1.33-1.33,1.33Z" fill="none" stroke="#000" stroke-miterlimit="22.93" stroke-width=".57"/><path d="M320.81,144.52c-.73,0-1.33-.59-1.33-1.33s.59-1.33,1.33-1.33,1.33,.59,1.33,1.33-.59,1.33-1.33,1.33Z" fill="#c1e2f3" fill-rule="evenodd"/><path d="M320.81,144.52c-.73,0-1.33-.59-1.33-1.33s.59-1.33,1.33-1.33,1.33,.59,1.33,1.33-.59,1.33-1.33,1.33Z" fill="none" stroke="#000" stroke-miterlimit="22.93" stroke-width=".57"/><path d="M235.76,169.14c-.73,0-1.33-.59-1.33-1.33s.59-1.33,1.33-1.33,1.33,.59,1.33,1.33-.59,1.33-1.33,1.33Z" fill="#c1e2f3" fill-rule="evenodd"/><path d="M235.76,169.14c-.73,0-1.33-.59-1.33-1.33s.59-1.33,1.33-1.33,1.33,.59,1.33,1.33-.59,1.33-1.33,1.33Z" fill="none" stroke="#000" stroke-miterlimit="22.93" stroke-width=".57"/><path d="M300.35,39.02c-.73,0-1.33,.59-1.33,1.33s.59,1.33,1.33,1.33,1.33-.59,1.33-1.33-.59-1.33-1.33-1.33Z" fill="#c1e2f3" fill-rule="evenodd"/><path d="M300.35,39.02c-.73,0-1.33,.59-1.33,1.33s.59,1.33,1.33,1.33,1.33-.59,1.33-1.33-.59-1.33-1.33-1.33Z" fill="none" stroke="#000" stroke-miterlimit="22.93" stroke-width=".57"/><path d="M202.62,57.58c-.73,0-1.33,.59-1.33,1.33s.59,1.33,1.33,1.33,1.33-.59,1.33-1.33-.59-1.33-1.33-1.33Z" fill="#c1e2f3" fill-rule="evenodd"/><path d="M202.62,57.58c-.73,0-1.33,.59-1.33,1.33s.59,1.33,1.33,1.33,1.33-.59,1.33-1.33-.59-1.33-1.33-1.33Z" fill="none" stroke="#000" stroke-miterlimit="22.93" stroke-width=".57"/><path d="M330.66,68.38c-.73,0-1.33,.59-1.33,1.33s.59,1.33,1.33,1.33,1.33-.59,1.33-1.33-.59-1.33-1.33-1.33Z" fill="#c1e2f3" fill-rule="evenodd"/><path d="M330.66,68.38c-.73,0-1.33,.59-1.33,1.33s.59,1.33,1.33,1.33,1.33-.59,1.33-1.33-.59-1.33-1.33-1.33Z" fill="none" stroke="#000" stroke-miterlimit="22.93" stroke-width=".57"/><path d="M318.72,28.23c-.73,0-1.33,.59-1.33,1.33s.59,1.33,1.33,1.33,1.33-.59,1.33-1.33-.59-1.33-1.33-1.33Z" fill="#c1e2f3" fill-rule="evenodd"/><path d="M318.72,28.23c-.73,0-1.33,.59-1.33,1.33s.59,1.33,1.33,1.33,1.33-.59,1.33-1.33-.59-1.33-1.33-1.33Z" fill="none" stroke="#000" stroke-miterlimit="22.93" stroke-width=".57"/><path d="M245.61,43.76c-.73,0-1.33,.59-1.33,1.33s.59,1.33,1.33,1.33,1.33-.59,1.33-1.33-.59-1.33-1.33-1.33Z" fill="#c1e2f3" fill-rule="evenodd"/><path d="M245.61,43.76c-.73,0-1.33,.59-1.33,1.33s.59,1.33,1.33,1.33,1.33-.59,1.33-1.33-.59-1.33-1.33-1.33Z" fill="none" stroke="#000" stroke-miterlimit="22.93" stroke-width=".57"/><path d="M264.13,5.48c50.83,0,92.04,41.21,92.04,92.04s-41.21,92.04-92.04,92.04-92.04-41.21-92.04-92.04S213.3,5.48,264.13,5.48" fill="#5ed3ca" fill-rule="evenodd"/><path d="M312.27,19.07c21.37,13.14,36.97,34.77,42.08,60.2-.12,.11-14.53,12.52-15.39,3.1-.86-9.46,0-8.6-.86-18.92-.86-10.32-9.46-6.02-24.94-3.44-15.48,2.58-2.58,10.32-2.58,10.32,0,0,1.72,10.32-11.18,13.76-12.9,3.44-6.02,7.74-21.5-6.88-15.48-14.62,4.3-6.88,2.58-25.8-1.71-18.86,31.58-32.24,31.8-32.33" fill="#5dd1a1" fill-rule="evenodd"/><path d="M326.66,165.04c-.18,.17-.36,.34-.55,.51,.18-.18,.36-.35,.55-.51m29.37-72.45c.09,1.63,.13,3.28,.13,4.93,0,26.34-11.07,50.09-28.8,66.87,6.44-6.79-5.67-24.29-8.19-20.09-2.58,4.3-15.48,3.44-26.66-4.3-11.18-7.74-10.11-6.02-7.53-12.9,2.58-6.88-.22-13.76,.65-21.5,.86-7.74,11.18,.86,13.76-4.3,2.58-5.16,36.13-6.02,36.13-6.02l20.51-2.68Z" fill="#5dd1a1" fill-rule="evenodd"/><path d="M230.34,183.16c-28.04-11.07-49.34-35.52-56.03-65.48,1.94-3.01,1.52-1.32,3.13-3.74,1.61-2.42,1.88-2.15,3.76-4.3,1.88-2.15,0-2.42-.54-5.38-.54-2.96-1.07-2.42-4.03-4.57-1.78-1.3-3.04-3.28-4.48-5.53,.74-20.53,8.2-39.33,20.24-54.3,17.04,12.68,13.47,6.16,31.31,10.78,12.47-.36,0,9.18,0,13.76-2.01,4.01-4.01,8.03-6.02,12.04-18.19-2.18-30.54-3.36-11.18,13.33-1.58,1.29-3.15,2.58-4.73,3.87-3.01-1.43-10.32-2.44-13.33-3.87-1.39,13.88,3.77,16.97,20.64,19.78,2.58,.43,8.6,5.16,8.6,5.16,0,0,14.62,12.04,15.05,15.48,.43,3.44,2.58,8.6,3.01,11.18,.43,2.58,3.44,4.73,3.01,12.04-.43,7.31,0,6.88-1.29,11.18-1.29,4.3-3.87,7.74-3.87,10.32s-3.24,8.21-3.25,8.22" fill="#5dd1a1" fill-rule="evenodd"/><path d="M238.02,73.14c2.86,0,5.19,2.32,5.19,5.19s-2.32,5.19-5.19,5.19-5.19-2.32-5.19-5.19c0-2.86,2.32-5.19,5.19-5.19" fill="#202c4c" fill-rule="evenodd"/><path d="M285.93,73.14c2.86,0,5.19,2.32,5.19,5.19,0,2.86-2.32,5.19-5.19,5.19s-5.19-2.32-5.19-5.19,2.32-5.19,5.19-5.19" fill="#202c4c" fill-rule="evenodd"/><path d="M291.36,118.06c-1.06,3.12-3.53,5.32-6.6,6.02-.68,.16-1.39,.24-2.13,.24h-37.01c-.73,0-1.44-.08-2.13-.24-3.07-.7-5.55-2.9-6.6-6.02-1.29-3.8-.07-7.82,3.12-10.27,6.68-5.13,15.05-8.17,24.12-8.17s17.43,3.05,24.11,8.17c3.19,2.45,4.41,6.47,3.12,10.27Z" fill="#202c4c" fill-rule="evenodd"/><path d="M233.57,175.28c-17.01-3.82-32.24-12.34-44.26-24.14,10.24,14.26,24.46,25.47,41.03,32.01,.01-.02,2.97-5.17,3.23-7.87" fill="#51c490" fill-rule="evenodd"/><path d="M356.03,92.58c-1.25-23.75-11.51-45.11-27.42-60.73l.02,.02c12.86,12.64,22.02,29.02,25.72,47.39-.07,.06-4.44,3.82-8.51,5.65,0,.19,0,.38,0,.56,0,2.86-.13,5.69-.39,8.49l10.58-1.38Z" fill="#51c4b8" fill-rule="evenodd"/><path d="M354.35,79.26c-3.7-18.37-12.86-34.75-25.72-47.39,10.73,14.95,17.09,33.26,17.21,53.04,4.07-1.83,8.44-5.59,8.51-5.65" fill="#51c490" fill-rule="evenodd"/><path d="M350.59,129.14c.06-.16,.12-.33,.18-.49-.06,.16-.12,.33-.18,.49m-.29,.79c.08-.2,.15-.41,.23-.61-.08,.2-.15,.41-.23,.61Zm-.25,.66c.08-.21,.16-.41,.24-.62-.08,.21-.16,.41-.24,.62Zm-26.61,15.08c-16.88,19.51-41.81,31.85-69.63,31.85-6.95,0-13.72-.77-20.23-2.23-.25,2.7-3.22,7.86-3.23,7.87,10.46,4.13,21.86,6.4,33.78,6.4,23.88,0,45.64-9.09,61.99-24.01,10.47-9.54,18.72-21.47,23.91-34.92-4.98,12.91-12.79,24.41-22.66,33.76,4.45-4.69,.05-14.48-3.93-18.72Zm2.69,19.88c.18-.18,.36-.35,.55-.51l-.55,.51Z" fill="#51c4b8" fill-rule="evenodd"/><path d="M351.24,127.31l-.2,.02-.93,.09-.93,.09-.94,.09-.94,.09-.94,.09-.95,.09-.95,.09-.63,.06c-1.68,.15-3.16-1.09-3.31-2.76-.15-1.68,1.09-3.16,2.76-3.31l.63-.06,.94-.08,.94-.09,.94-.09,.93-.09,.93-.09,.93-.09,.92-.09,.92-.09,.92-.09,.88-.09c1.97-7.49,3.02-15.36,3.02-23.47,0-1.66-.04-3.3-.13-4.93l-10.58,1.38c-1.8,19.68-9.8,37.57-22.02,51.7,3.98,4.23,8.38,14.03,3.93,18.72,10.71-10.13,18.99-22.82,23.87-37.07" fill="#51c490" fill-rule="evenodd"/><path d="M345.24,130.06c7.72,0,7.73-12,0-12s-7.73,12,0,12h0Z" fill="#51c490"/><path d="M346.98,125.69c7.72,0,7.73-12,0-12s-7.73,12,0,12h0Z" fill="#51c490"/><path d="M346.69,127c7.72,0,7.73-12,0-12s-7.73,12,0,12h0Z" fill="#51c490"/><path d="M345.53,130.49c7.72,0,7.73-12,0-12s-7.73,12,0,12h0Z" fill="#51c490"/><path d="M345.67,130.64c7.72,0,7.73-12,0-12s-7.73,12,0,12h0Z" fill="#51c490"/><path d="M346.25,129.18c7.72,0,7.73-12,0-12s-7.73,12,0,12h0Z" fill="#51c490"/><path d="M346.55,126.57c7.72,0,7.73-12,0-12s-7.73,12,0,12h0Z" fill="#51c490"/><path d="M346.98,126.13c7.72,0,7.73-12,0-12s-7.73,12,0,12h0Z" fill="#51c490"/><path d="M346.98,126.13c7.72,0,7.73-12,0-12s-7.73,12,0,12h0Z" fill="#51c490"/><path d="M347.13,126.86c7.72,0,7.73-12,0-12s-7.73,12,0,12h0Z" fill="#51c490"/><path d="M345.53,131.22c7.72,0,7.73-12,0-12s-7.73,12,0,12h0Z" fill="#51c490"/><path d="M345.82,130.64c7.72,0,7.73-12,0-12s-7.73,12,0,12h0Z" fill="#51c490"/><path d="M207.55,36.8c-3.36,4.3-6.45,4.03-1.88,5.24,4.57,1.21,4.97,2.42,7.66,.54,2.69-1.88,2.82,1.34,2.82-3.23s3.09-2.96-.67-5.38c-3.76-2.42-4.3-6.99-6.05-3.36-1.75,3.63-1.88,6.18-1.88,6.18" fill="#5dd1a1" fill-rule="evenodd"/><path d="M267.35,47.01c.54,2.96,2.82,2.15,.4,5.51-2.42,3.36-3.9,4.44-2.82,5.78,1.08,1.34,3.63,3.23,4.44,3.23s2.02,.27,2.28-.81c.27-1.08,2.02-3.9,2.02-3.9,0,0,1.34,.94,1.61,0,.27-.94-1.21-2.55-1.48-4.84-.27-2.29-.4-3.09-1.21-4.03-.81-.94-2.15-4.7-3.63-4.7s-1.61,3.76-1.61,3.76" fill="#5dd1a1" fill-rule="evenodd"/><path d="M220.53,78.04c-.28,0-.57-.05-.84-.17-1.13-.47-1.67-1.76-1.21-2.89,.21-.52,5.35-12.79,16.65-16.17,1.17-.35,2.41,.31,2.76,1.49,.35,1.17-.32,2.41-1.49,2.76-9.24,2.77-13.78,13.5-13.82,13.61-.35,.85-1.18,1.37-2.05,1.37Z" fill="#202c4c"/><path d="M301.16,78.04c-.87,0-1.7-.52-2.05-1.37-.06-.14-4.59-10.85-13.82-13.61-1.17-.35-1.84-1.59-1.49-2.76,.35-1.17,1.58-1.84,2.76-1.49,11.3,3.38,16.44,15.65,16.65,16.17,.46,1.13-.08,2.43-1.21,2.89-.27,.11-.56,.17-.84,.17Z" fill="#202c4c"/></g><path d="M462.86,150.88h-77.95v-32.02L458.22,14h44.31V116.54h19.02v34.33h-19.02v30.16h-39.67v-30.16Zm2.78-34.33V57.62l-38.97,58.93h38.97Z" fill="#0d9488"/><path d="M83.64,150.88H5.69v-32.02L79.01,14h44.31V116.54h19.02v34.33h-19.02v30.16h-39.67v-30.16Zm2.78-34.33V57.62l-38.97,58.93h38.97Z" fill="#0d9488"/></svg>