<?xml version="1.0" encoding="utf-8"?>
<!-- Generator: Adobe Illustrator 26.1.0, SVG Export Plug-In . SVG Version: 6.00 Build 0)  -->
<svg version="1.1" id="a" xmlns="http://www.w3.org/2000/svg" xmlns:xlink="http://www.w3.org/1999/xlink" x="0px" y="0px"
	 viewBox="0 0 265.5 61.1" style="enable-background:new 0 0 265.5 61.1;" xml:space="preserve">
<style type="text/css">
	.st0{fill:#0D9488;}
</style>
<path id="b" class="st0" d="M54.4,2.9c-0.8-0.8-2.1-1.1-3.2-0.7L1.9,20.9l0,0c-1.5,0.6-2.3,2.3-1.7,3.8c0.3,0.8,1,1.5,1.8,1.7l0.1,0
	L19,33.7c0.7,0.2,1.4,0,1.9-0.4L48.1,7.9c0.3-0.3,0.9-0.3,1.2,0s0.3,0.9,0,1.2L24,36.3c-0.5,0.5-0.6,1.2-0.4,1.9l7.2,17
	c0,0,0,0,0,0.1c0.4,1.1,1.4,2,2.6,2h0.1c1.2,0,2.4-0.8,2.8-1.9L55,6C55.5,4.9,55.2,3.7,54.4,2.9z"/>
<g>
	<path class="st0" d="M78.9,20.4h-3.7V14h3.7V6.3h7.9V14h6.9v6.4h-6.9v15c0,2.1,0.8,3,3.3,3h3.6V45h-4.9c-5.9,0-9.9-2.5-9.9-9.6
		V20.4L78.9,20.4z"/>
	<path class="st0" d="M107.3,45h-7.8V14h7.8v4.8c2-3.2,5.2-5.3,9.5-5.3v8.2h-2.1c-4.7,0-7.4,1.8-7.4,7.8
		C107.3,29.6,107.3,45,107.3,45z"/>
	<path class="st0" d="M121.2,5.7c0-2.6,2-4.6,4.8-4.6c2.8,0,4.8,2,4.8,4.6s-2.1,4.6-4.8,4.6C123.3,10.3,121.2,8.3,121.2,5.7z
		 M122,14h7.8v31H122C122,45,122,14,122,14z"/>
	<path class="st0" d="M155.7,13.5c7.9,0,14.2,6.2,14.2,15.9s-6.2,16.1-14.2,16.1c-4.9,0-8.3-2.4-10.2-4.9v19.2h-7.8V14h7.8v4.5
		C147.3,15.8,150.9,13.5,155.7,13.5z M153.6,20.4c-4.2,0-8.2,3.2-8.2,9.1s4,9.1,8.2,9.1s8.2-3.4,8.2-9.2S157.9,20.4,153.6,20.4
		L153.6,20.4z"/>
	<path class="st0" d="M193.7,13.5c7.9,0,14.2,6.2,14.2,15.9s-6.2,16.1-14.2,16.1c-4.9,0-8.3-2.4-10.2-4.9v19.2h-7.8V14h7.8v4.5
		C185.3,15.8,188.8,13.5,193.7,13.5z M191.6,20.4c-4.2,0-8.2,3.2-8.2,9.1s4,9.1,8.2,9.1s8.2-3.4,8.2-9.2S195.8,20.4,191.6,20.4
		L191.6,20.4z"/>
	<path class="st0" d="M227.1,45.5c-9,0-15.6-6.3-15.6-16s6.4-16,15.6-16s15.3,6.1,15.3,15.3c0,1-0.1,2-0.2,3h-22.7
		c0.4,4.6,3.5,7.2,7.4,7.2c3.4,0,5.2-1.7,6.2-3.8h8.5C239.9,41,234.8,45.5,227.1,45.5L227.1,45.5z M219.5,26.6h14.7
		c-0.1-4.1-3.4-6.7-7.4-6.7C223.1,19.9,220.2,22.3,219.5,26.6z"/>
	<path class="st0" d="M255.9,45h-7.8V14h7.8v4.8c2-3.2,5.2-5.3,9.5-5.3v8.2h-2.1c-4.6,0-7.4,1.8-7.4,7.8L255.9,45L255.9,45z"/>
</g>
</svg>
